<svg xmlns="http://www.w3.org/2000/svg" viewBox="0 0 71.03 80.8"><defs><style>.cls-1{fill:#f7f7f7;}.cls-2{fill:#807526;}</style></defs><g id="Capa_2" data-name="Capa 2"><g id="Capa_1-2" data-name="Capa 1"><path class="cls-1" d="M67.05,80.3a3.46,3.46,0,0,1-1.73-.47L2.24,43.41a3.47,3.47,0,0,1,0-6L65.32,1a3.47,3.47,0,0,1,5.21,3V76.82a3.43,3.43,0,0,1-1.06,2.5,3.54,3.54,0,0,1-2.42,1Z"/><path class="cls-2" d="M67.05,1a3,3,0,0,1,3,3V76.82a3,3,0,0,1-4.46,2.58L2.49,43a3,3,0,0,1,0-5.14L65.57,1.4A3,3,0,0,1,67.05,1m0-1a3.94,3.94,0,0,0-2,.54L2,37a4,4,0,0,0,0,6.88L65.07,80.26a4,4,0,0,0,6-3.44V4a4,4,0,0,0-4-4Z"/></g></g></svg>