<svg xmlns="http://www.w3.org/2000/svg" viewBox="0 0 71.03 80.8"><defs><style>.cls-1{fill:#f7f7f7;}.cls-2{fill:#807526;}</style></defs><g id="Capa_2" data-name="Capa 2"><g id="Capa_1-2" data-name="Capa 1"><path class="cls-1" d="M4,80.3A3.48,3.48,0,0,1,.5,76.82V4A3.47,3.47,0,0,1,5.71,1L68.79,37.39a3.47,3.47,0,0,1,0,6L5.71,79.83A3.46,3.46,0,0,1,4,80.3Z"/><path class="cls-2" d="M4,0V1a3,3,0,0,1,1.48.4L68.54,37.83a3,3,0,0,1,0,5.14L5.46,79.4A3,3,0,0,1,4,79.8a3,3,0,0,1-3-3V4A3,3,0,0,1,4,1V0M4,0A4,4,0,0,0,0,4V76.82a4,4,0,0,0,6,3.44L69,43.84A4,4,0,0,0,69,37L6,.54A3.94,3.94,0,0,0,4,0Z"/></g></g></svg>