<svg xmlns="http://www.w3.org/2000/svg" viewBox="0 0 241.83 63"><defs><style>.cls-1{fill:#ccb400;}.cls-2{fill:#fee000;}.cls-3{fill:#807526;}.cls-4{opacity:0.3;}.cls-5{opacity:0.2;}.cls-6{opacity:0.5;}.cls-7{fill:#fff;}.cls-8{font-size:40px;fill:#f2f2f2;font-family:PoiretOne-Regular, Poiret One;}</style></defs><g id="Capa_2" data-name="Capa 2"><g id="Capa_1-2" data-name="Capa 1"><path class="cls-1" d="M17.74,51.39A21.7,21.7,0,0,1,7,48.58l0,0H7a18.63,18.63,0,0,1-1.64-1h0c-.57-.4-1.13-.82-1.66-1.27A31.41,31.41,0,0,1,.25,35.5a33.43,33.43,0,0,1-.25-4,31.62,31.62,0,0,1,2.38-12s0,0,0-.07,0,0,0,0A31.61,31.61,0,0,1,18.79,2.67c-.18.26-.36.54-.54.82h0s0,0,0,0A21.88,21.88,0,0,0,18.55,27s0,0,0,0v0c.3.43.59.86.92,1.27,0,0,0,0,0,0l.44.78h0l0,0,1.47,2.56,6.4,11.09a4.25,4.25,0,0,0,1.5,1.51,4.34,4.34,0,0,0,2,.58h.05a4.26,4.26,0,0,0,2.6-.85,19.94,19.94,0,0,1-2,1.94l-.06,0a21.68,21.68,0,0,1-13,5.27C18.61,51.37,18.18,51.39,17.74,51.39Z"/><path class="cls-2" d="M61.37,41.51c0-.36-.09-.72-.14-1.07a.24.24,0,0,1,0-.08,21.84,21.84,0,0,0-19-18.13h-.06c-.68-.08-1.36-.13-2-.15h-17a4.22,4.22,0,0,0-1.88.44A4.17,4.17,0,0,0,19.12,25,4.19,4.19,0,0,0,19,26.73a4.07,4.07,0,0,0,.53,1.62c-.33-.41-.62-.84-.92-1.27,0,0,0,0,0,0v0a22,22,0,0,1-3.37-15.12c.06-.45.15-.91.25-1.35a21.48,21.48,0,0,1,2.8-7s0,0,0,0h0l.54-.82A31.56,31.56,0,0,1,31.5,0c.74,0,1.46,0,2.19.08L35.11.2l.09,0A31.48,31.48,0,0,1,63,31.5a30.91,30.91,0,0,1-1,8,1,1,0,0,0,0,.15C61.77,40.25,61.58,40.88,61.37,41.51Z"/><path class="cls-3" d="M31.5,63a26.68,26.68,0,0,1-2.83-.14,31.46,31.46,0,0,1-25-16.6c.53.45,1.09.87,1.66,1.27h0a18.63,18.63,0,0,0,1.64,1H7l0,0a21.7,21.7,0,0,0,10.7,2.81c.44,0,.87,0,1.29,0a21.65,21.65,0,0,0,13-5.27l.07,0a21.11,21.11,0,0,0,2-1.94,4.22,4.22,0,0,0,1.09-1.25l.15-.24h0l2.57-4.46.74-1.3,4.89-8.47a3.84,3.84,0,0,0,.38-.88,4.21,4.21,0,0,0-.57-3.62,4.13,4.13,0,0,0-1.4-1.26,4.22,4.22,0,0,0-1.8-.53c.69,0,1.37.06,2,.14h.07a21.86,21.86,0,0,1,19,18.14s0,0,0,.08c.06.35.11.71.15,1.07a31,31,0,0,1-5.71,10.17A31.35,31.35,0,0,1,31.5,63Z"/><g class="cls-4"><g class="cls-4"><path d="M17.74,51.39A21.6,21.6,0,0,1,7,48.58l0,0H7a18.63,18.63,0,0,1-1.64-1h0c-.57-.4-1.13-.82-1.66-1.27A31.41,31.41,0,0,1,.25,35.5l.78.62c11.43,8.93,22.07,8.81,27.24,8l.59-.1a4.2,4.2,0,0,0,2.54.92h.05a4.26,4.26,0,0,0,2.6-.85,19.94,19.94,0,0,1-2,1.94l-.06,0a21.68,21.68,0,0,1-13,5.27C18.61,51.37,18.18,51.39,17.74,51.39Z"/></g></g><g class="cls-5"><g class="cls-5"><path d="M55.67,51.69a38.25,38.25,0,0,0-11.8-24.21A4.23,4.23,0,0,0,44,25.61a4.13,4.13,0,0,0-.71-1.75,4.2,4.2,0,0,0-3.2-1.79c.69,0,1.38.06,2,.14h.06a21.86,21.86,0,0,1,19,18.14.31.31,0,0,0,0,.08c.05.35.11.71.14,1.07A31.17,31.17,0,0,1,55.67,51.69Z"/></g></g><g class="cls-5"><g class="cls-5"><path d="M19.49,28.35c-.33-.42-.63-.85-.93-1.29,0,0,0,0,0,0a21.9,21.9,0,0,1-.31-23.52v0h0c.18-.28.36-.56.54-.82A31.23,31.23,0,0,1,31.5,0c.74,0,1.46,0,2.19.07-10.86,8-12.38,17.85-12.42,22.42A4.19,4.19,0,0,0,19.12,25a4.19,4.19,0,0,0,.37,3.32Z"/></g></g><g class="cls-6"><g class="cls-6"><path class="cls-7" d="M62,39.45c.07-.35.18-1.05.32-2.06a32.33,32.33,0,0,0,.24-6.06,36,36,0,0,0-.41-4,34.35,34.35,0,0,0-1-4.35,33.29,33.29,0,0,0-1.75-4.44,33.53,33.53,0,0,0-5.52-8.11,35.8,35.8,0,0,0-3.49-3.25c-.59-.51-1.23-.91-1.82-1.37S47.29,5,46.67,4.6s-1.21-.73-1.82-1a18.67,18.67,0,0,0-1.75-.85A17.13,17.13,0,0,0,41.45,2c-.54-.22-1-.42-1.53-.58C39,1.13,38.09.9,37.38.72S36.09.43,35.7.34L35.2.22A31.48,31.48,0,0,1,63,31.5,30.91,30.91,0,0,1,62,39.45Z"/></g></g><g class="cls-4"><g class="cls-4"><path d="M31.5,63a27,27,0,0,1-2.84-.14A31.46,31.46,0,0,1,.25,35.5a33.43,33.43,0,0,1-.25-4,31.62,31.62,0,0,1,2.38-12c-.1.3-.38,1.15-.72,2.44A32.27,32.27,0,0,0,.59,28.76,33.6,33.6,0,0,0,1,36.12c.13.75.29,1.52.48,2.29a31,31,0,0,0,1.75,5.16,25.28,25.28,0,0,0,1.24,2.5c.27.49.55,1,.83,1.46h0c.21.33.42.66.64,1a30.7,30.7,0,0,0,3.5,4.38,31.17,31.17,0,0,0,4.09,3.61,33.43,33.43,0,0,0,4.32,2.73c.74.36,1.44.72,2.16,1l1,.45,1,.37c.66.27,1.33.44,1.95.63a18.53,18.53,0,0,0,1.8.47,14.35,14.35,0,0,0,1.61.33c.5.08,1,.18,1.37.22C30.54,62.88,31.5,63,31.5,63Z"/></g></g><g class="cls-4"><g class="cls-4"><path d="M30.55,45a4.15,4.15,0,0,1-2.28-.88h0a4.35,4.35,0,0,1-1.1-1.24c-.31-.45-.64-.92-1-1.42s-.65-1-1-1.54-.64-1.07-1-1.62-.61-1.1-.92-1.64-.57-1.09-.84-1.61C22,34,21.5,33,21.12,32.11A31,31,0,0,1,20,29.17l0,0,1.47,2.56,6.4,11.08a4.25,4.25,0,0,0,1.5,1.51,4.12,4.12,0,0,0,2,.58h.06l-.23,0A3.84,3.84,0,0,1,30.55,45Z"/></g></g><g class="cls-4"><g class="cls-4"><path d="M18.57,27.07s-.26-.29-.68-.84a17.26,17.26,0,0,1-1.52-2.42A18.78,18.78,0,0,1,14.92,20a19,19,0,0,1-.45-2.27,23.82,23.82,0,0,1-.18-2.38c0-.41,0-.81,0-1.19s0-.81.09-1.21a16.19,16.19,0,0,1,.38-2.28,18.72,18.72,0,0,1,1.35-3.85A16.19,16.19,0,0,1,17.6,4.34c.4-.56.66-.86.66-.86l-.43,1c-.26.63-.61,1.53-1,2.63a27.47,27.47,0,0,0-.9,3.79c-.12.7-.19,1.43-.25,2.17,0,.38-.05.74-.07,1.11s0,.77,0,1.15a25.16,25.16,0,0,0,.44,4.41c.15.69.28,1.37.46,2s.36,1.22.54,1.77c.38,1.08.76,2,1,2.59Z"/></g></g><g class="cls-4"><g class="cls-4"><path d="M7,48.55s.39.17,1.08.43a30.1,30.1,0,0,0,2.88.91,25.28,25.28,0,0,0,4.14.73c.77.08,1.56.1,2.36.11h.3l.29,0,.63,0,.31,0,.29,0,.62-.06a21.34,21.34,0,0,0,2.4-.35,23.23,23.23,0,0,0,2.29-.58,25.2,25.2,0,0,0,3.91-1.54,26.13,26.13,0,0,0,2.64-1.47l1-.62-.21.22a7.73,7.73,0,0,1-.6.62,17.28,17.28,0,0,1-2.41,1.93,18.06,18.06,0,0,1-1.8,1.06,19.16,19.16,0,0,1-4.52,1.66A22.59,22.59,0,0,1,20,52l-.63,0L19,52h-.32l-.62,0h-.66a19.42,19.42,0,0,1-6.73-1.41,17.39,17.39,0,0,1-2.75-1.41c-.32-.2-.56-.37-.72-.49Z"/></g></g><g class="cls-4"><g class="cls-4"><path d="M42.13,22.2h.32c.21,0,.52,0,.91,0a16.68,16.68,0,0,1,3.21.53,19,19,0,0,1,4.32,1.7,21,21,0,0,1,4.33,3.15,21.82,21.82,0,0,1,1.83,2A19.71,19.71,0,0,1,60.46,36a18.3,18.3,0,0,1,.68,3.19c0,.39,0,.7.08.9l0,.33s-.13-.44-.37-1.17a26.72,26.72,0,0,0-1.14-3,27.69,27.69,0,0,0-2.18-3.86c-.46-.66-1-1.32-1.51-2a20.83,20.83,0,0,0-1.77-1.87,22,22,0,0,0-1.93-1.67c-.68-.5-1.35-1-2-1.42a25.79,25.79,0,0,0-4-2,29.71,29.71,0,0,0-3-1Z"/></g></g><text class="cls-8" transform="translate(72.5 49.21) scale(1.06 1)">BookEvent</text></g></g></svg>