<?xml version="1.0" encoding="utf-8"?>
<!-- Generator: Adobe Illustrator 24.2.3, SVG Export Plug-In . SVG Version: 6.00 Build 0)  -->
<svg version="1.1" id="Capa_1" xmlns="http://www.w3.org/2000/svg" xmlns:xlink="http://www.w3.org/1999/xlink" x="0px" y="0px"
	 viewBox="0 0 512 512" style="enable-background:new 0 0 512 512;" xml:space="preserve">
<style type="text/css">
	.st0{fill:#FFEA4D;}
</style>
<g>
	<g>
		<path class="st0" d="M481.9,126.8L342.4,265.3l139.5,138.6c2.5-5.3,4.1-11.1,4.1-17.3V144.1C485.9,137.9,484.4,132.1,481.9,126.8z
			"/>
	</g>
</g>
<g>
	<g>
		<path class="st0" d="M445.5,103.7h-379c-6.2,0-12,1.5-17.3,4.1l178.2,177.3c15.8,15.8,41.4,15.8,57.1,0l178.2-177.3
			C457.5,105.2,451.7,103.7,445.5,103.7z"/>
	</g>
</g>
<g>
	<g>
		<path class="st0" d="M30.1,126.8c-2.5,5.3-4.1,11.1-4.1,17.3v242.5c0,6.2,1.5,12,4.1,17.3l139.5-138.6L30.1,126.8z"/>
	</g>
</g>
<g>
	<g>
		<path class="st0" d="M323.4,284.4l-19.7,19.7c-26.3,26.3-69,26.3-95.2,0l-19.7-19.7L49.2,422.9c5.3,2.5,11.1,4.1,17.3,4.1h379
			c6.2,0,12-1.5,17.3-4.1L323.4,284.4z"/>
	</g>
</g>
</svg>
