<?xml version="1.0" encoding="utf-8"?>
<!-- Generator: Adobe Illustrator 24.2.3, SVG Export Plug-In . SVG Version: 6.00 Build 0)  -->
<svg version="1.1" id="Capa_1" xmlns="http://www.w3.org/2000/svg" xmlns:xlink="http://www.w3.org/1999/xlink" x="0px" y="0px"
	 viewBox="0 0 513.6 513.6" style="enable-background:new 0 0 513.6 513.6;" xml:space="preserve">
<style type="text/css">
	.st0{fill:#FFEA4D;}
</style>
<g>
	<g>
		<path class="st0" d="M487.8,369.9l-68.2-67.5c-24.3-24.1-65.7-14.5-75.5,16.9c-7.3,21.7-31.7,33.7-53.6,28.9
			c-48.7-12.1-114.4-74.7-126.6-125.3c-7.3-21.7,7.3-45.8,29.2-53c31.7-9.6,41.4-50.6,17-74.7L142,27.7c-19.5-16.9-48.7-16.9-65.7,0
			L30.1,73.5c-46.3,48.2,4.9,176,119.3,289.3S392.8,529,441.5,480.8l46.3-45.8C504.8,415.7,504.8,386.8,487.8,369.9z"/>
	</g>
</g>
</svg>
